M48
; DRILL file {KiCad 9.0.2+1} date 2025-07-11T21:54:51+0300
; FORMAT={-:-/ absolute / metric / decimal}
; #@! TF.CreationDate,2025-07-11T21:54:51+03:00
; #@! TF.GenerationSoftware,Kicad,Pcbnew,9.0.2+1
; #@! TF.FileFunction,MixedPlating,1,2
FMAT,2
METRIC
; #@! TA.AperFunction,Plated,PTH,ViaDrill
T1C0.300
; #@! TA.AperFunction,Plated,PTH,ViaDrill
T2C0.400
; #@! TA.AperFunction,Plated,PTH,ViaDrill
T3C0.700
; #@! TA.AperFunction,Plated,PTH,ComponentDrill
T4C0.762
; #@! TA.AperFunction,Plated,PTH,ComponentDrill
T5C1.000
; #@! TA.AperFunction,Plated,PTH,ComponentDrill
T6C1.630
%
G90
G05
T1
X3.08Y-22.95
X8.0Y-43.39
X37.82Y-37.57
T2
X3.005Y-36.39
X10.17Y-35.67
X16.642Y-28.127
X20.18Y-4.696
X20.184Y-2.6
X23.646Y-9.356
X24.49Y-4.26
X24.586Y-16.026
X25.62Y-4.25
X25.7Y-7.35
X25.86Y-9.11
X25.98Y-31.13
X26.33Y-22.49
X26.36Y-24.85
X26.61Y-27.54
X27.196Y-7.346
X28.13Y-11.84
X28.61Y-12.79
X28.89Y-11.03
X30.63Y-14.2
X30.96Y-3.85
X30.96Y-4.92
X31.74Y-14.18
X31.84Y-11.42
X32.66Y-25.04
X34.6Y-16.923
X34.61Y-15.42
X34.64Y-14.35
X35.86Y-12.09
X37.37Y-12.285
X37.37Y-13.84
X37.99Y-8.2
X38.2Y-26.282
X39.14Y-15.782
X40.15Y-6.51
X40.72Y-19.443
X41.29Y-6.51
X42.91Y-11.14
X42.92Y-9.85
X44.48Y-18.71
X45.54Y-19.59
X48.44Y-4.99
X48.57Y-10.02
X49.7Y-11.04
X51.28Y-16.84
X51.83Y-9.68
X53.39Y-16.857
X55.59Y-10.04
T3
X-1.84Y-44.35
X3.79Y0.85
X62.88Y-0.2
X63.09Y-44.45
T4
X3.646Y-3.156
X3.646Y-5.696
X3.646Y-13.866
X3.646Y-16.406
X14.076Y-5.336
X14.076Y-7.876
X14.076Y-10.416
X14.076Y-12.956
X14.076Y-15.496
X16.616Y-4.066
X16.616Y-6.606
X16.616Y-9.146
X16.616Y-11.686
X16.616Y-14.226
T5
X48.38Y-27.81
X48.38Y-35.41
T6
X10.776Y-2.036
X10.776Y-17.526
M30
