M48
; DRILL file {KiCad 9.0.2+1} date 2025-07-19T13:41:05+0300
; FORMAT={-:-/ absolute / metric / decimal}
; #@! TF.CreationDate,2025-07-19T13:41:05+03:00
; #@! TF.GenerationSoftware,Kicad,Pcbnew,9.0.2+1
; #@! TF.FileFunction,MixedPlating,1,2
FMAT,2
METRIC
; #@! TA.AperFunction,Plated,PTH,ViaDrill
T1C0.400
; #@! TA.AperFunction,Plated,PTH,ViaDrill
T2C0.700
; #@! TA.AperFunction,Plated,PTH,ComponentDrill
T3C0.762
; #@! TA.AperFunction,Plated,PTH,ComponentDrill
T4C1.000
; #@! TA.AperFunction,Plated,PTH,ComponentDrill
T5C1.630
%
G90
G05
T1
X3.935Y-37.35
X4.01Y-23.91
X8.93Y-44.35
X11.1Y-36.63
X17.572Y-29.087
X21.11Y-5.656
X21.114Y-3.56
X24.566Y-11.97
X24.576Y-10.316
X25.42Y-5.22
X25.516Y-16.986
X26.55Y-5.21
X26.63Y-8.31
X26.79Y-10.07
X26.91Y-32.09
X27.26Y-23.45
X27.29Y-25.81
X27.54Y-28.5
X28.1Y-13.83
X28.126Y-8.306
X29.07Y-13.24
X29.2Y-12.16
X29.9Y-11.28
X30.93Y-15.24
X31.89Y-4.81
X31.89Y-5.88
X32.67Y-15.14
X32.78Y-12.13
X34.45Y-7.5
X34.832Y-29.035
X35.53Y-17.883
X35.54Y-16.38
X35.57Y-15.31
X36.075Y-23.495
X36.76Y-13.2
X37.82Y-14.76
X39.3Y-9.19
X39.35Y-13.05
X40.17Y-9.18
X40.26Y-5.48
X40.42Y-16.46
X41.08Y-7.47
X41.65Y-20.403
X42.22Y-7.47
X43.84Y-12.1
X43.85Y-10.81
X44.38Y-18.37
X45.41Y-19.67
X45.58Y-9.48
X47.2Y-10.08
X48.19Y-26.79
X48.68Y-12.64
X49.13Y-18.41
X50.52Y-10.29
X51.89Y-18.32
X52.42Y-13.32
X54.055Y-10.765
T2
X-0.17Y-1.92
X-0.08Y-44.28
X57.76Y-0.19
X59.1Y-43.98
T3
X4.576Y-4.116
X4.576Y-6.656
X4.576Y-14.826
X4.576Y-17.366
X15.006Y-6.296
X15.006Y-8.836
X15.006Y-11.376
X15.006Y-13.916
X15.006Y-16.456
X17.546Y-5.026
X17.546Y-7.566
X17.546Y-10.106
X17.546Y-12.646
X17.546Y-15.186
T4
X50.99Y-34.65
X50.99Y-42.25
T5
X11.706Y-2.996
X11.706Y-18.486
M30
